<?xml version="1.0" standalone="no"?>
<svg xmlns:xlink="http://www.w3.org/1999/xlink" id="wave" style="transform:rotate(180deg); transition: 0.3s" viewBox="0 0 1440 490" version="1.1" xmlns="http://www.w3.org/2000/svg"><defs><linearGradient id="sw-gradient-0" x1="0" x2="0" y1="1" y2="0"><stop stop-color="rgba(255, 182, 180, 1)" offset="0%"/><stop stop-color="rgba(255, 255, 255, 0)" offset="100%"/></linearGradient></defs><path style="transform:translate(0, 0px); opacity:1" fill="url(#sw-gradient-0)" d="M0,294L60,261.3C120,229,240,163,360,155.2C480,147,600,196,720,228.7C840,261,960,278,1080,277.7C1200,278,1320,261,1440,220.5C1560,180,1680,114,1800,147C1920,180,2040,310,2160,359.3C2280,408,2400,376,2520,375.7C2640,376,2760,408,2880,400.2C3000,392,3120,343,3240,334.8C3360,327,3480,359,3600,367.5C3720,376,3840,359,3960,334.8C4080,310,4200,278,4320,294C4440,310,4560,376,4680,343C4800,310,4920,180,5040,138.8C5160,98,5280,147,5400,212.3C5520,278,5640,359,5760,392C5880,425,6000,408,6120,400.2C6240,392,6360,392,6480,343C6600,294,6720,196,6840,163.3C6960,131,7080,163,7200,147C7320,131,7440,65,7560,73.5C7680,82,7800,163,7920,196C8040,229,8160,212,8280,196C8400,180,8520,163,8580,155.2L8640,147L8640,490L8580,490C8520,490,8400,490,8280,490C8160,490,8040,490,7920,490C7800,490,7680,490,7560,490C7440,490,7320,490,7200,490C7080,490,6960,490,6840,490C6720,490,6600,490,6480,490C6360,490,6240,490,6120,490C6000,490,5880,490,5760,490C5640,490,5520,490,5400,490C5280,490,5160,490,5040,490C4920,490,4800,490,4680,490C4560,490,4440,490,4320,490C4200,490,4080,490,3960,490C3840,490,3720,490,3600,490C3480,490,3360,490,3240,490C3120,490,3000,490,2880,490C2760,490,2640,490,2520,490C2400,490,2280,490,2160,490C2040,490,1920,490,1800,490C1680,490,1560,490,1440,490C1320,490,1200,490,1080,490C960,490,840,490,720,490C600,490,480,490,360,490C240,490,120,490,60,490L0,490Z"/></svg>